{
  "accessors": [
    {
      "bufferView": 0,
      "componentType": 5125,
      "count": 21660,
      "type": "SCALAR"
    },
    {
      "bufferView": 1,
      "componentType": 5126,
      "count": 3800,
      "max": [
        1.46019852161407,
        1.12234771251678,
        0.43851700425148
      ],
      "min": [
        -1.46020138263702,
        -1.80395042896271,
        -0.479242652654648
      ],
      "type": "VEC3"
    },
    {
      "bufferView": 2,
      "componentType": 5126,
      "count": 3800,
      "type": "VEC3"
    },
    {
      "bufferView": 3,
      "componentType": 5126,
      "count": 3800,
      "type": "VEC4"
    },
    {
      "bufferView": 4,
      "componentType": 5126,
      "count": 3800,
      "type": "VEC2"
    }
  ],
  "asset": {
    "generator": "Adobe Substance 3D Painter 10.1.2",
    "version": "2.0"
  },
  "bufferViews": [
    {
      "buffer": 0,
      "byteLength": 86640,
      "target": 34963
    },
    {
      "buffer": 0,
      "byteLength": 45600,
      "byteOffset": 86640,
      "target": 34962
    },
    {
      "buffer": 0,
      "byteLength": 45600,
      "byteOffset": 132240,
      "target": 34962
    },
    {
      "buffer": 0,
      "byteLength": 60800,
      "byteOffset": 177840,
      "target": 34962
    },
    {
      "buffer": 0,
      "byteLength": 30400,
      "byteOffset": 238640,
      "target": 34962
    }
  ],
  "buffers": [
    {
      "byteLength": 269040,
      "uri": "AmigoBurbuja.bin"
    }
  ],
  "images": [
    {
      "uri": "AmigoBurbuja0_baseColor.png"
    },
    {
      "uri": "AmigoBurbuja0_occlusionRoughnessMetallic.png"
    },
    {
      "uri": "AmigoBurbuja0_normal.png"
    },
    {
      "uri": "AmigoBurbuja0_emissive.png"
    }
  ],
  "materials": [
    {
      "alphaMode": "BLEND",
      "emissiveFactor": [
        1.0,
        1.0,
        1.0
      ],
      "emissiveTexture": {
        "index": 3
      },
      "name": "AmigoBurbuja0",
      "normalTexture": {
        "index": 2
      },
      "occlusionTexture": {
        "index": 1
      },
      "pbrMetallicRoughness": {
        "baseColorTexture": {
          "index": 0
        },
        "metallicRoughnessTexture": {
          "index": 1
        }
      }
    }
  ],
  "meshes": [
    {
      "name": "AmigoBurbuja",
      "primitives": [
        {
          "attributes": {
            "NORMAL": 2,
            "POSITION": 1,
            "TANGENT": 3,
            "TEXCOORD_0": 4
          },
          "indices": 0,
          "material": 0,
          "mode": 4
        }
      ]
    }
  ],
  "nodes": [
    {
      "children": [
        1
      ],
      "name": "RootNode",
      "scale": [
        0.00999999977648258,
        0.00999999977648258,
        0.00999999977648258
      ]
    },
    {
      "children": [
        2
      ],
      "name": "AmigoBurbuja"
    },
    {
      "mesh": 0,
      "name": "AmigoBurbuja"
    }
  ],
  "samplers": [
    {
      "magFilter": 9729,
      "minFilter": 9985,
      "wrapS": 10497,
      "wrapT": 10497
    }
  ],
  "scene": 0,
  "scenes": [
    {
      "name": "Scene",
      "nodes": [
        0
      ]
    }
  ],
  "textures": [
    {
      "sampler": 0,
      "source": 0
    },
    {
      "sampler": 0,
      "source": 1
    },
    {
      "sampler": 0,
      "source": 2
    },
    {
      "sampler": 0,
      "source": 3
    }
  ]
}