{
  "accessors": [
    {
      "bufferView": 0,
      "componentType": 5125,
      "count": 47886,
      "type": "SCALAR"
    },
    {
      "bufferView": 1,
      "componentType": 5126,
      "count": 8359,
      "max": [
        1.23501694202423,
        1.60132026672363,
        1.27155447006226
      ],
      "min": [
        -1.23497831821442,
        -1.43104195594788,
        -0.0994126796722412
      ],
      "type": "VEC3"
    },
    {
      "bufferView": 2,
      "componentType": 5126,
      "count": 8359,
      "type": "VEC3"
    },
    {
      "bufferView": 3,
      "componentType": 5126,
      "count": 8359,
      "type": "VEC4"
    },
    {
      "bufferView": 4,
      "componentType": 5126,
      "count": 8359,
      "type": "VEC2"
    }
  ],
  "asset": {
    "generator": "Adobe Substance 3D Painter 10.1.2",
    "version": "2.0"
  },
  "bufferViews": [
    {
      "buffer": 0,
      "byteLength": 191544,
      "target": 34963
    },
    {
      "buffer": 0,
      "byteLength": 100308,
      "byteOffset": 191544,
      "target": 34962
    },
    {
      "buffer": 0,
      "byteLength": 100308,
      "byteOffset": 291852,
      "target": 34962
    },
    {
      "buffer": 0,
      "byteLength": 133744,
      "byteOffset": 392160,
      "target": 34962
    },
    {
      "buffer": 0,
      "byteLength": 66872,
      "byteOffset": 525904,
      "target": 34962
    }
  ],
  "buffers": [
    {
      "byteLength": 592776,
      "uri": "PiezaLeon.bin"
    }
  ],
  "images": [
    {
      "uri": "PiezaLeon0_baseColor.png"
    },
    {
      "uri": "PiezaLeon0_occlusionRoughnessMetallic.png"
    },
    {
      "uri": "PiezaLeon0_normal.png"
    },
    {
      "uri": "PiezaLeon0_emissive.png"
    }
  ],
  "materials": [
    {
      "alphaMode": "BLEND",
      "emissiveFactor": [
        1.0,
        1.0,
        1.0
      ],
      "emissiveTexture": {
        "index": 3
      },
      "name": "PiezaLeon0",
      "normalTexture": {
        "index": 2
      },
      "occlusionTexture": {
        "index": 1
      },
      "pbrMetallicRoughness": {
        "baseColorTexture": {
          "index": 0
        },
        "metallicRoughnessTexture": {
          "index": 1
        }
      }
    }
  ],
  "meshes": [
    {
      "name": "PiezaLeon",
      "primitives": [
        {
          "attributes": {
            "NORMAL": 2,
            "POSITION": 1,
            "TANGENT": 3,
            "TEXCOORD_0": 4
          },
          "indices": 0,
          "material": 0,
          "mode": 4
        }
      ]
    }
  ],
  "nodes": [
    {
      "children": [
        1
      ],
      "name": "RootNode",
      "scale": [
        0.00999999977648258,
        0.00999999977648258,
        0.00999999977648258
      ]
    },
    {
      "children": [
        2
      ],
      "name": "PiezaLeon"
    },
    {
      "mesh": 0,
      "name": "PiezaLeon"
    }
  ],
  "samplers": [
    {
      "magFilter": 9729,
      "minFilter": 9985,
      "wrapS": 10497,
      "wrapT": 10497
    }
  ],
  "scene": 0,
  "scenes": [
    {
      "name": "Scene",
      "nodes": [
        0
      ]
    }
  ],
  "textures": [
    {
      "sampler": 0,
      "source": 0
    },
    {
      "sampler": 0,
      "source": 1
    },
    {
      "sampler": 0,
      "source": 2
    },
    {
      "sampler": 0,
      "source": 3
    }
  ]
}