{
  "accessors": [
    {
      "bufferView": 0,
      "componentType": 5125,
      "count": 3600,
      "type": "SCALAR"
    },
    {
      "bufferView": 1,
      "componentType": 5126,
      "count": 1292,
      "max": [
        1.37322247028351,
        1.9877302646637,
        1.37322342395782
      ],
      "min": [
        -1.37322413921356,
        -1.0,
        -1.37322282791138
      ],
      "type": "VEC3"
    },
    {
      "bufferView": 2,
      "componentType": 5126,
      "count": 1292,
      "type": "VEC3"
    },
    {
      "bufferView": 3,
      "componentType": 5126,
      "count": 1292,
      "type": "VEC4"
    },
    {
      "bufferView": 4,
      "componentType": 5126,
      "count": 1292,
      "type": "VEC2"
    }
  ],
  "asset": {
    "generator": "Adobe Substance 3D Painter 10.1.2",
    "version": "2.0"
  },
  "bufferViews": [
    {
      "buffer": 0,
      "byteLength": 14400,
      "target": 34963
    },
    {
      "buffer": 0,
      "byteLength": 15504,
      "byteOffset": 14400,
      "target": 34962
    },
    {
      "buffer": 0,
      "byteLength": 15504,
      "byteOffset": 29904,
      "target": 34962
    },
    {
      "buffer": 0,
      "byteLength": 20672,
      "byteOffset": 45408,
      "target": 34962
    },
    {
      "buffer": 0,
      "byteLength": 10336,
      "byteOffset": 66080,
      "target": 34962
    }
  ],
  "buffers": [
    {
      "byteLength": 76416,
      "uri": "Linterna.bin"
    }
  ],
  "images": [
    {
      "uri": "standardSurface1_baseColor.png"
    },
    {
      "uri": "standardSurface1_occlusionRoughnessMetallic.png"
    },
    {
      "uri": "standardSurface1_normal.png"
    },
    {
      "uri": "standardSurface1_emissive.png"
    }
  ],
  "materials": [
    {
      "alphaMode": "OPAQUE",
      "emissiveFactor": [
        1.0,
        1.0,
        1.0
      ],
      "emissiveTexture": {
        "index": 3
      },
      "name": "standardSurface1",
      "normalTexture": {
        "index": 2
      },
      "occlusionTexture": {
        "index": 1
      },
      "pbrMetallicRoughness": {
        "baseColorTexture": {
          "index": 0
        },
        "metallicRoughnessTexture": {
          "index": 1
        }
      }
    }
  ],
  "meshes": [
    {
      "name": "pCylinder2",
      "primitives": [
        {
          "attributes": {
            "NORMAL": 2,
            "POSITION": 1,
            "TANGENT": 3,
            "TEXCOORD_0": 4
          },
          "indices": 0,
          "material": 0,
          "mode": 4
        }
      ]
    }
  ],
  "nodes": [
    {
      "children": [
        1
      ],
      "name": "RootNode",
      "scale": [
        0.00999999977648258,
        0.00999999977648258,
        0.00999999977648258
      ]
    },
    {
      "children": [
        2
      ],
      "name": "pCylinder2",
      "rotation": [
        0.70710676908493,
        0.0,
        0.0,
        0.70710676908493
      ],
      "scale": [
        0.456717133522034,
        1.09362983703613,
        0.456717133522034
      ],
      "translation": [
        1.75372397899628,
        0.810159862041473,
        -0.177049577236176
      ]
    },
    {
      "mesh": 0,
      "name": "pCylinder2"
    }
  ],
  "samplers": [
    {
      "magFilter": 9729,
      "minFilter": 9985,
      "wrapS": 10497,
      "wrapT": 10497
    }
  ],
  "scene": 0,
  "scenes": [
    {
      "name": "Scene",
      "nodes": [
        0
      ]
    }
  ],
  "textures": [
    {
      "sampler": 0,
      "source": 0
    },
    {
      "sampler": 0,
      "source": 1
    },
    {
      "sampler": 0,
      "source": 2
    },
    {
      "sampler": 0,
      "source": 3
    }
  ]
}